<svg width="180" height="180" viewBox="0 0 180 180" fill="none" xmlns="http://www.w3.org/2000/svg">
<rect x="-1" y="1" width="100.138" height="100.138" transform="matrix(-1 0 0 1 177.371 77.1384)" stroke="#F6F8FD" stroke-width="2"/>
<rect x="-1" y="1" width="100.138" height="99.9494" transform="matrix(-1 0 0 1 151.836 51.7925)" stroke="#F6F8FD" stroke-width="2"/>
<path d="M178.811 77.7368L153.253 52.3499" stroke="#F6F8FD" stroke-width="2"/>
<path d="M78.0308 77.9366L52.4963 52.4021" stroke="#F6F8FD" stroke-width="2"/>
<path d="M77.793 178.704L52.255 153.168" stroke="#F6F8FD" stroke-width="2"/>
<path d="M178.573 178.478L153.038 152.944" stroke="#F6F8FD" stroke-width="2"/>
<rect x="-1" y="1" width="100.138" height="100.138" transform="matrix(-1 0 0 1 126.302 26.0696)" stroke="#F6F8FD" stroke-width="2"/>
<rect x="-1" y="1" width="100.138" height="99.9494" transform="matrix(-1 0 0 1 100.767 0.723633)" stroke="#F6F8FD" stroke-width="2"/>
<path d="M127.743 26.668L102.184 1.28101" stroke="#F6F8FD" stroke-width="2"/>
<path d="M26.9619 26.8675L1.42745 1.33301" stroke="#F6F8FD" stroke-width="2"/>
<path d="M26.7241 127.636L1.1861 102.099" stroke="#F6F8FD" stroke-width="2"/>
<path d="M127.504 127.409L101.969 101.875" stroke="#F6F8FD" stroke-width="2"/>
</svg>
