<svg width="150" height="35" viewBox="0 0 150 35" fill="none" xmlns="http://www.w3.org/2000/svg">
<path d="M13.61 1.12H1.47998V13.25H13.61V1.12Z" stroke="#ABB2BF" stroke-width="2" stroke-miterlimit="10"/>
<path d="M36.0499 1.12H23.9199V13.25H36.0499V1.12Z" stroke="#ABB2BF" stroke-width="2" stroke-miterlimit="10"/>
<path d="M58.4801 1.12H46.3501V13.25H58.4801V1.12Z" stroke="#ABB2BF" stroke-width="2" stroke-miterlimit="10"/>
<path d="M80.92 1.12H68.79V13.25H80.92V1.12Z" stroke="#ABB2BF" stroke-width="2" stroke-miterlimit="10"/>
<path d="M103.35 1.12H91.22V13.25H103.35V1.12Z" stroke="#ABB2BF" stroke-width="2" stroke-miterlimit="10"/>
<path d="M125.78 1.12H113.65V13.25H125.78V1.12Z" stroke="#ABB2BF" stroke-width="2" stroke-miterlimit="10"/>
<path d="M148.22 1.12H136.09V13.25H148.22V1.12Z" stroke="#ABB2BF" stroke-width="2" stroke-miterlimit="10"/>
<path d="M13.61 20.91H1.47998V33.04H13.61V20.91Z" stroke="#ABB2BF" stroke-width="2" stroke-miterlimit="10"/>
<path d="M36.0499 20.91H23.9199V33.04H36.0499V20.91Z" stroke="#ABB2BF" stroke-width="2" stroke-miterlimit="10"/>
<path d="M58.4801 20.91H46.3501V33.04H58.4801V20.91Z" stroke="#ABB2BF" stroke-width="2" stroke-miterlimit="10"/>
<path d="M80.92 20.91H68.79V33.04H80.92V20.91Z" stroke="#ABB2BF" stroke-width="2" stroke-miterlimit="10"/>
<path d="M103.35 20.91H91.22V33.04H103.35V20.91Z" stroke="#ABB2BF" stroke-width="2" stroke-miterlimit="10"/>
<path d="M125.78 20.91H113.65V33.04H125.78V20.91Z" stroke="#ABB2BF" stroke-width="2" stroke-miterlimit="10"/>
<path d="M148.22 20.91H136.09V33.04H148.22V20.91Z" stroke="#ABB2BF" stroke-width="2" stroke-miterlimit="10"/>
</svg>
