<svg width="349" height="255" viewBox="0 0 349 255" fill="none" xmlns="http://www.w3.org/2000/svg">
<circle cx="2" cy="40" r="2" fill="#ABB2BF"/>
<circle cx="16.75" cy="40" r="2" fill="#ABB2BF"/>
<circle cx="31.5" cy="40" r="2" fill="#ABB2BF"/>
<circle cx="46.25" cy="40" r="2" fill="#ABB2BF"/>
<circle cx="61" cy="40" r="2" fill="#ABB2BF"/>
<circle cx="2" cy="54.75" r="2" fill="#ABB2BF"/>
<circle cx="16.75" cy="54.75" r="2" fill="#ABB2BF"/>
<circle cx="31.5" cy="54.75" r="2" fill="#ABB2BF"/>
<circle cx="46.25" cy="54.75" r="2" fill="#ABB2BF"/>
<circle cx="61" cy="54.75" r="2" fill="#ABB2BF"/>
<circle cx="2" cy="69.5" r="2" fill="#ABB2BF"/>
<circle cx="16.75" cy="69.5" r="2" fill="#ABB2BF"/>
<circle cx="31.5" cy="69.5" r="2" fill="#ABB2BF"/>
<circle cx="46.25" cy="69.5" r="2" fill="#ABB2BF"/>
<circle cx="61" cy="69.5" r="2" fill="#ABB2BF"/>
<circle cx="2" cy="84.25" r="2" fill="#ABB2BF"/>
<circle cx="16.75" cy="84.25" r="2" fill="#ABB2BF"/>
<circle cx="31.5" cy="84.25" r="2" fill="#ABB2BF"/>
<circle cx="46.25" cy="84.25" r="2" fill="#ABB2BF"/>
<circle cx="61" cy="84.25" r="2" fill="#ABB2BF"/>
<circle cx="2" cy="99" r="2" fill="#ABB2BF"/>
<circle cx="16.75" cy="99" r="2" fill="#ABB2BF"/>
<circle cx="31.5" cy="99" r="2" fill="#ABB2BF"/>
<circle cx="46.25" cy="99" r="2" fill="#ABB2BF"/>
<circle cx="61" cy="99" r="2" fill="#ABB2BF"/>
<circle cx="179" cy="145" r="2" fill="#ABB2BF"/>
<circle cx="193.75" cy="145" r="2" fill="#ABB2BF"/>
<circle cx="208.5" cy="145" r="2" fill="#ABB2BF"/>
<circle cx="223.25" cy="145" r="2" fill="#ABB2BF"/>
<circle cx="238" cy="145" r="2" fill="#ABB2BF"/>
<circle cx="179" cy="159.75" r="2" fill="#ABB2BF"/>
<circle cx="193.75" cy="159.75" r="2" fill="#ABB2BF"/>
<circle cx="208.5" cy="159.75" r="2" fill="#ABB2BF"/>
<circle cx="223.25" cy="159.75" r="2" fill="#ABB2BF"/>
<circle cx="238" cy="159.75" r="2" fill="#ABB2BF"/>
<circle cx="179" cy="174.5" r="2" fill="#ABB2BF"/>
<circle cx="193.75" cy="174.5" r="2" fill="#ABB2BF"/>
<circle cx="208.5" cy="174.5" r="2" fill="#ABB2BF"/>
<circle cx="223.25" cy="174.5" r="2" fill="#ABB2BF"/>
<circle cx="238" cy="174.5" r="2" fill="#ABB2BF"/>
<circle cx="179" cy="189.25" r="2" fill="#ABB2BF"/>
<circle cx="193.75" cy="189.25" r="2" fill="#ABB2BF"/>
<circle cx="208.5" cy="189.25" r="2" fill="#ABB2BF"/>
<circle cx="223.25" cy="189.25" r="2" fill="#ABB2BF"/>
<circle cx="238" cy="189.25" r="2" fill="#ABB2BF"/>
<circle cx="179" cy="204" r="2" fill="#ABB2BF"/>
<circle cx="193.75" cy="204" r="2" fill="#ABB2BF"/>
<circle cx="208.5" cy="204" r="2" fill="#ABB2BF"/>
<circle cx="223.25" cy="204" r="2" fill="#ABB2BF"/>
<circle cx="238" cy="204" r="2" fill="#ABB2BF"/>
<rect x="297.5" y="193.5" width="51" height="51" stroke="#ABB2BF"/>
<rect x="227.5" y="0.5" width="85" height="85" stroke="#ABB2BF"/>
<rect x="23.5" y="169.5" width="85" height="85" stroke="#ABB2BF"/>
</svg>
